<svg width="24" height="24" viewBox="0 0 24 24" fill="none" xmlns="http://www.w3.org/2000/svg">
<path fill-rule="evenodd" clip-rule="evenodd" d="M8.99999 7.50004H5.08499C7.07709 4.43849 10.8452 3.0513 14.3469 4.09038C17.8486 5.12946 20.2502 8.34743 20.25 12H21.75C21.7542 7.89044 19.1812 4.2194 15.3166 2.82145C11.4521 1.42349 7.12591 2.5988 4.49999 5.76004V3.00004H2.99999V9.00004H8.99999V7.50004ZM15 16.5H18.915C16.9229 19.5616 13.1548 20.9488 9.65307 19.9097C6.15137 18.8706 3.74976 15.6527 3.74999 12H2.24999C2.24576 16.1097 4.81882 19.7807 8.68336 21.1786C12.5479 22.5766 16.8741 21.4013 19.5 18.24V21H21V15H15V16.5Z" fill="white"/>
</svg>
